<?xml version="1.0" encoding="utf-8"?>
<svg version="1.0" width="538px" height="520px" viewBox="0 0 538 520" preserveAspectRatio="xMidYMid meet" xmlns="http://www.w3.org/2000/svg">
  <g fill="#000000">
    <path d="M112.70 411.15 c-0.35 -0.25 -0.70 -3.75 -0.90 -9.20 l-0.35 -8.85 3.40 -1.60 c1.85 -0.85 4.85 -2.15 6.65 -2.80 1.80 -0.70 3.95 -1.65 4.80 -2.15 0.85 -0.50 4.60 -2.20 8.25 -3.80 9.15 -3.90 16.60 -7.35 17.25 -7.95 0.35 -0.35 0.80 -5.45 1.15 -13.30 0.30 -7 0.90 -14.65 1.25 -17 1.20 -7.50 3.35 -17.55 4.60 -21.45 0.70 -2.10 1.80 -5.75 2.45 -8.15 2.65 -9.20 9.75 -24.30 16 -33.90 8.60 -13.25 22.05 -28.05 39.25 -43.20 22.60 -19.95 26.90 -24.45 33.35 -34.80 1.10 -1.80 2.35 -4.15 2.70 -5.25 0.35 -1.10 0.90 -2.30 1.15 -2.65 0.75 -1.05 4.80 -0.50 11.30 1.50 3.15 1 8.35 2.50 11.50 3.35 3.15 0.85 8.35 2.35 11.50 3.30 6.50 2.05 11.10 3.35 14.75 4.20 2.70 0.65 8.85 2.50 18.50 5.55 3.30 1.05 7.30 2.15 8.90 2.45 4.05 0.75 15.85 4.60 15.85 5.20 0 0.25 1 7.50 2.25 16.05 1.25 8.55 2.60 19.25 3 23.80 0.40 4.55 1.40 13 2.25 18.75 4.70 33.50 5.55 39.70 6.05 45.55 0.30 3.55 1.40 12.65 2.45 20.20 1.05 7.55 2.65 19.10 3.55 25.65 1.35 10.15 1.70 11.85 2.45 11.85 0.45 0 2.20 0.70 3.85 1.50 4.10 2.05 8.10 6.85 10.25 12.25 1.35 3.40 1.60 4.85 1.80 9.40 l0.20 5.35 -31.15 -0.10 -31.20 -0.15 -3.30 -8.50 c-1.85 -4.65 -3.90 -9.85 -4.60 -11.50 -0.75 -1.65 -2.45 -6.10 -3.85 -9.85 -1.40 -3.80 -3.40 -8.65 -4.40 -10.85 l-1.85 -4 -4.55 1.90 c-2.45 1.05 -5.65 2.30 -7.10 2.75 -1.45 0.50 -2.60 1 -2.60 1.15 0 0.35 3.55 8.55 11.30 26.35 2.75 6.25 3.70 9 3.70 10.60 l0 2.20 -93.10 0 c-51.25 0 -94.25 0.15 -95.65 0.30 -1.35 0.15 -2.75 0.05 -3.05 -0.15z"/>
    <path d="M347.50 197.20 c-0.70 -0.15 -4.15 -0.90 -7.75 -1.70 -11.40 -2.60 -29.90 -6.40 -32.50 -6.70 -1.35 -0.20 -4.95 -0.90 -8 -1.60 -11.85 -2.70 -30.30 -6.45 -38.40 -7.75 -3.35 -0.55 -3.90 -0.80 -4.15 -1.80 -0.30 -1.20 0 -6.65 2.05 -34.65 0.70 -9.20 1.45 -21.45 1.70 -27.25 0.70 -14.70 1.40 -26.45 2.95 -49.25 l1.35 -19.75 1.85 -0.15 c1.80 -0.15 2.15 0.15 19.40 17.35 l17.55 17.55 30.60 0.10 30.60 0.15 3.35 5.50 c1.85 3.05 5.30 8.65 7.65 12.55 l4.25 7.05 5.15 0.90 c2.80 0.50 7.35 1.45 10.10 2.10 2.75 0.65 6.80 1.55 9 1.95 2.20 0.45 6.65 1.45 9.85 2.25 3.20 0.80 6.50 1.45 7.30 1.45 2.40 0 3.40 1.35 4.15 5.50 1.05 5.75 0.85 18.15 -0.40 24 -3.80 17.75 -19.15 36.10 -37.65 45.05 -5.80 2.80 -11.65 5 -16.55 6.25 -3.15 0.75 -20.50 1.45 -23.45 0.90z"/>
  </g>
</svg>