<?xml version="1.0" encoding="utf-8"?>
<svg version="1.0" width="770px" height="568px" viewBox="0 0 770 568" preserveAspectRatio="xMidYMid meet" xmlns="http://www.w3.org/2000/svg">
  <g fill="#000000">
    <path d="M289.50 514.50 c-32.75 -0.30 -31.05 -0.10 -37.25 -4.10 -4 -2.55 -6.50 -5.15 -8.55 -8.85 -1.60 -2.85 -1.85 -2.90 -5.95 -1.05 -5.15 2.30 -25.40 8.55 -31.50 9.70 -2.20 0.45 -5.45 1.10 -7.25 1.50 -1.80 0.45 -7.35 1.25 -12.35 1.85 -7.75 0.90 -11 1 -21.50 0.80 -14.70 -0.30 -18.60 -0.75 -25.90 -3.10 -3 -0.95 -5.75 -1.75 -6.05 -1.75 -0.35 0 -2.20 -0.80 -4.15 -1.75 -1.95 -0.95 -3.70 -1.75 -3.90 -1.75 -0.80 0 -11.05 -6.35 -14.65 -9.10 -5.15 -3.85 -10.95 -10.15 -15.40 -16.70 -2.35 -3.45 -7.60 -14 -7.60 -15.35 0 -0.45 -0.20 -1.25 -0.45 -1.75 -1.20 -2.40 -2.85 -11.35 -3.40 -18.30 -0.30 -4.50 0.80 -14.80 1.95 -18.05 0.30 -0.80 0.65 -2.15 0.75 -3 0.15 -0.80 0.45 -1.70 0.65 -2 0.20 -0.25 0.65 -1.40 1 -2.45 1.05 -3.30 3.85 -7.55 6.95 -10.65 4.90 -4.90 12 -7.65 19.85 -7.65 13.60 0.05 20.40 5.70 26.70 22.40 1.35 3.60 2.95 8.25 3.55 10.20 1.70 5.75 4.60 10.95 7.85 14 2.35 2.25 3.60 3 6.85 4.05 4.70 1.60 10.90 1.80 16.55 0.65 1.90 -0.40 5.15 -1 7.20 -1.30 2.05 -0.30 4.45 -0.80 5.25 -1.05 0.85 -0.30 3.75 -1.30 6.50 -2.20 7.80 -2.55 19.65 -8.25 25.90 -12.40 7.90 -5.30 7.70 -5.05 8.10 -11.35 0.35 -5.55 1.85 -19.70 2.80 -26 0.75 -5.10 4.55 -19.80 6.65 -25.80 8.45 -24.20 23.10 -46.35 43.80 -66.05 6 -5.75 19.30 -17.10 23 -19.70 0.95 -0.65 2.55 -1.90 3.55 -2.75 1 -0.90 5.30 -3.90 9.50 -6.70 4.25 -2.80 8.15 -5.50 8.70 -6 0.55 -0.50 1.55 -1.20 2.25 -1.50 0.70 -0.30 2.30 -1.25 3.60 -2.15 1.30 -0.90 4.65 -3.05 7.45 -4.85 20.40 -12.95 33.05 -21.80 40.95 -28.75 2.90 -2.55 5.95 -5.20 13.25 -11.50 23.20 -20 47.35 -43.40 59.15 -57.20 7.70 -9 14.35 -17.80 18.40 -24.30 1.70 -2.75 3.65 -5.80 4.25 -6.75 2.25 -3.50 5.15 -8.30 6.80 -11.15 l1.65 -2.90 -1.20 -2.35 c-2.15 -4.35 -3.80 -9 -4.55 -12.95 -0.95 -4.80 -0.95 -7.20 -0.05 -10.40 1.60 -5.85 4 -9.65 10.05 -16.20 10.15 -10.90 27.10 -22.85 44.90 -31.70 5 -2.50 11.55 -5.25 15.60 -6.60 l7 -2.35 9 0.25 c15.20 0.40 23.75 2.90 34.65 10.10 5.45 3.55 11.95 9.60 20.60 19.10 5.55 6.10 8.60 9.05 10.75 10.35 l3 1.80 18 0 18 0 3.05 1.45 c3.80 1.80 6.25 3.90 8.75 7.65 2.65 3.90 3.45 6.30 3.45 10.60 0 6.50 -2.90 16.95 -6.60 23.75 -1.10 2.10 -2.60 4.85 -3.25 6.15 -0.70 1.45 -3.65 4.85 -7.30 8.50 -5.50 5.50 -6.60 6.40 -10.85 8.45 -6.60 3.25 -12.40 5 -17.50 5.30 -5.20 0.30 -6.90 0.80 -10.75 3.10 -5.70 3.40 -8.50 5.70 -15 12.30 -7 7.05 -10.50 12.25 -11.30 16.55 -0.25 1.25 -0.35 18.15 -0.25 37.60 0.25 40.35 0.05 44.30 -2.50 52 -4.50 13.45 -11.25 25.25 -22.80 39.80 -9 11.30 -15.30 18.70 -22.85 26.80 -2.45 2.60 -5.35 5.90 -6.40 7.25 -1.10 1.40 -2.50 2.95 -3.15 3.50 -1 0.90 -5.50 6.40 -9.85 12 -0.85 1.10 -2.35 3.35 -3.35 5 l-1.80 3 0 41 c0 38.75 0.05 41.10 0.95 43 1.35 2.90 2.60 4.10 9.20 8.40 6.35 4.20 14.15 11.50 15.85 14.90 0.55 1.05 1.20 2 1.45 2.15 0.90 0.60 3 8.15 3.30 12.15 0.40 4.65 -0.35 10.10 -1.80 13.45 -0.60 1.35 -2.25 3.25 -4.25 5.05 -5.30 4.70 -4.35 4.55 -35.65 4.70 -24.50 0.10 -27.05 0.05 -29.80 -0.80 -5.10 -1.50 -7.90 -3.20 -12.95 -7.75 -4.10 -3.70 -7.65 -11.20 -8.35 -17.60 -1 -8.95 -1.40 -11.75 -1.90 -13.40 -0.25 -0.95 -0.95 -5 -1.50 -9 -0.55 -4 -1.35 -9.15 -1.80 -11.50 -0.40 -2.35 -1.35 -7.85 -2.05 -12.25 -0.70 -4.40 -1.60 -9.80 -2 -12 -0.75 -4.20 -1.20 -7.35 -2.45 -18 -1.25 -9.90 -1.05 -9.60 -4.60 -7.35 -1.15 0.75 -4.20 2.65 -6.75 4.20 -2.55 1.60 -6.20 3.90 -8.15 5.10 -1.90 1.25 -5.05 3.15 -7 4.25 -1.90 1.10 -5.05 3.05 -7 4.25 -1.90 1.20 -4.90 3.05 -6.55 4.05 -2.90 1.75 -3.15 2.05 -4.45 5.45 -0.80 1.95 -1.95 4.65 -2.60 6 -2 4 -7.75 11.35 -11.35 14.50 -1.90 1.70 -3.15 3.15 -2.90 3.40 0.20 0.20 2.30 0.75 4.65 1.20 8.55 1.60 10.15 2.05 16.70 4.35 14.85 5.25 23.50 11.55 27.85 20.25 l2.15 4.35 0 7 c0 6.10 -0.15 7.30 -1.10 9.35 -1.45 3.15 -5.15 6.60 -9.25 8.70 -6.55 3.30 -5.15 3.25 -64.30 3.35 -29.35 0.05 -66.50 0 -82.60 -0.15z m-107.60 -20.75 c5.10 -0.75 10.80 -1.85 14.65 -2.80 1 -0.25 2.40 -0.45 3.15 -0.45 0.75 0 3.30 -0.65 5.70 -1.45 2.40 -0.80 5.70 -1.75 7.35 -2.05 1.65 -0.35 3.50 -0.95 4.10 -1.30 0.60 -0.40 1.45 -0.70 1.85 -0.70 0.45 0 1.50 -0.30 2.40 -0.70 0.90 -0.40 3.90 -1.55 6.65 -2.55 2.75 -1.05 7.10 -2.75 9.60 -3.85 l4.65 -2 3.75 -7.60 c2.05 -4.15 4.20 -8.30 4.75 -9.15 1.50 -2.50 3.30 -2.25 11.05 1.55 3.60 1.80 6.85 3.50 7.25 3.85 1.10 0.90 0.85 4.50 -0.45 7 -2.05 3.80 -6.25 12.10 -7.10 14.05 -0.75 1.65 -0.75 1.95 -0.05 3.25 1.10 2.20 4.50 5.05 6.40 5.40 0.90 0.15 36.10 0.20 78.15 0.15 70.75 -0.15 76.65 -0.20 78.40 -1 1 -0.45 1.85 -1.10 1.85 -1.40 0 -1.40 -5.10 -5.55 -9.55 -7.75 -4.25 -2.10 -6.90 -3.05 -13.95 -4.80 -1.25 -0.30 -3.35 -0.85 -4.75 -1.25 -4.40 -1.15 -15.35 -3.05 -21.75 -3.75 -2.60 -0.30 -9.45 -0.65 -15.15 -0.80 l-10.40 -0.25 -2.35 -1.60 c-3.45 -2.30 -4.20 -4.10 -3.95 -9.50 l0.15 -4.45 2.65 -2.45 c2.30 -2.10 2.90 -2.40 4.80 -2.40 1.20 0 2.30 -0.20 2.45 -0.45 0.20 -0.25 1.20 -0.60 2.30 -0.80 1.10 -0.20 2.10 -0.55 2.30 -0.80 0.15 -0.25 1 -0.45 1.90 -0.45 0.95 0 1.95 -0.30 2.25 -0.70 0.30 -0.40 2 -1.20 3.70 -1.85 10.15 -3.75 20.75 -12.85 25.20 -21.70 1.50 -2.95 3.65 -11.25 3.65 -14.05 0 -5 -2.15 -9.30 -6.85 -13.75 -10 -9.55 -28.95 -16.45 -51.15 -18.60 l-6.25 -0.60 -0.35 -2.75 c-0.50 -4.40 -0.45 -13.10 0.15 -15.10 l0.50 -1.90 3.60 0 c2 0 6.65 0.30 10.35 0.70 6.40 0.70 8.10 1 14.50 2.60 1.50 0.35 4 0.95 5.50 1.25 2.70 0.60 14.25 4.50 18.25 6.20 3.55 1.50 9.95 4.85 12.25 6.40 4.80 3.25 10.65 9.10 13.55 13.50 2.80 4.25 4.95 8.95 4.95 10.85 0 0.50 0.20 1.05 0.45 1.25 0.50 0.25 6.85 -3.55 28 -16.75 3.30 -2.05 6.70 -4.15 7.50 -4.60 1.75 -1 1.90 -1.85 0.85 -5.60 -0.40 -1.40 -1 -4.90 -1.30 -7.80 -0.55 -5 -0.85 -7 -2 -14.50 -0.65 -4.10 -0.10 -8.05 1.85 -12.80 2.70 -6.70 10.25 -25.95 11.30 -28.70 2.20 -5.90 6.95 -17.30 7.65 -18.35 1 -1.60 4.40 -1.55 8.15 0.10 1.55 0.65 4.50 1.85 6.55 2.60 l3.75 1.40 0.15 2.70 c0.15 2.40 -0.50 4.30 -7.35 21.60 -4.15 10.45 -7.55 19.20 -7.55 19.50 0 0.30 -0.60 1.80 -1.30 3.35 -2.15 4.70 -2.55 6.20 -2.15 8.35 0.20 1.10 0.40 3.10 0.40 4.45 0.05 1.35 0.35 4.15 0.75 6.25 1.20 6.40 2.30 13.55 2.80 18.55 0.30 2.60 0.85 6.80 1.25 9.25 0.40 2.50 1.15 8.10 1.75 12.50 1.20 9.45 2.40 17.20 3 20 0.25 1.10 0.70 4.05 1 6.50 0.30 2.50 1.20 8 2 12.25 0.80 4.25 1.80 10.35 2.25 13.50 0.45 3.15 1.05 6.75 1.35 8 0.55 2.40 1.15 6.15 1.85 11.75 0.25 1.95 0.70 4.15 1 4.90 0.30 0.80 0.55 2.20 0.55 3.15 0 2.05 1.90 6 3.60 7.50 3.50 3.10 2.15 2.95 25.60 3.10 13.15 0.10 21.65 -0.05 21.95 -0.35 0.30 -0.30 0 -1.45 -0.80 -3.20 -1.60 -3.55 -6.35 -8.15 -12.10 -11.70 -2.45 -1.50 -5.65 -3.75 -7.10 -4.95 -3.35 -2.85 -7 -8.45 -8.75 -13.40 l-1.40 -3.90 0.10 -46.90 0.15 -46.85 2.85 -5.80 c2.65 -5.25 4.75 -8.25 10.80 -15.35 1.05 -1.25 2.35 -2.90 2.90 -3.75 0.50 -0.80 1.75 -2.30 2.70 -3.25 1 -0.95 3 -3.20 4.50 -5 1.50 -1.80 5 -5.70 7.75 -8.75 2.80 -3 6.90 -7.65 9.15 -10.25 2.25 -2.60 5.05 -5.85 6.25 -7.25 1.20 -1.35 3.25 -4.05 4.60 -6 1.30 -1.90 3.10 -4.40 4 -5.50 5.40 -6.80 13.60 -21.70 14.95 -27.25 0.45 -1.80 1.20 -4.35 1.70 -5.75 0.75 -2.25 0.85 -6.40 0.90 -43.25 0.05 -45.40 -0.25 -41.35 3.70 -48.90 5.80 -11.10 20.65 -25.80 31.50 -31.15 1.80 -0.90 3.80 -2 4.50 -2.45 1.70 -1.15 2.75 -1.40 10.50 -2.50 3.70 -0.50 8 -1.40 9.50 -2 6.25 -2.45 12.70 -8 16.15 -13.90 4.15 -7.15 6.85 -14.45 5.65 -15.20 -0.30 -0.20 -7.70 -0.40 -16.40 -0.40 -17.10 0 -20.20 -0.35 -25.40 -2.70 -1.50 -0.70 -3.75 -1.90 -4.95 -2.75 -2.65 -1.80 -9.65 -8.55 -13.20 -12.80 -1.40 -1.65 -5.10 -5.55 -8.25 -8.60 -5.55 -5.55 -10.50 -9 -15.85 -11.25 -3.35 -1.40 -11.30 -3.30 -15.25 -3.65 -3.40 -0.30 -4.20 -0.15 -8.40 1.25 -4.85 1.65 -13.35 5.85 -19.25 9.45 -1.85 1.10 -3.50 2.05 -3.70 2.05 -0.15 0 -1.10 0.60 -2.10 1.40 -1 0.75 -3.70 2.55 -6.05 4 -2.35 1.50 -4.85 3.25 -5.60 4 -0.75 0.70 -2.15 1.75 -3.10 2.30 -6 3.70 -14.70 11.75 -16.80 15.60 -1.10 2.05 -1.10 2.10 -0.25 4.75 1.05 3.20 5.40 11.55 8.30 16 7.45 11.25 23.60 28.20 30 31.50 1.80 0.90 2.30 0.95 4.85 0.40 2.30 -0.45 3.25 -0.95 4.80 -2.60 3.40 -3.60 3.30 -2.40 3.30 -32.45 0 -14.95 0.20 -27.45 0.40 -27.80 0.35 -0.45 2.65 -0.60 9.85 -0.50 l9.45 0.15 0.40 1.70 c0.25 0.90 0.35 14.50 0.25 30.25 -0.25 33.60 -0.20 33 -4.75 39.50 -4.25 6.05 -8.30 9.10 -16.15 12.05 -1.95 0.70 -3.60 0.80 -10 0.60 -7.25 -0.20 -7.85 -0.30 -10.45 -1.60 -8.15 -4.15 -21.35 -15.45 -28.50 -24.30 l-3.85 -4.80 -3.70 5.65 c-3.85 5.95 -13.50 19.50 -16.45 23.15 -10.80 13.30 -24.70 28.20 -39.65 42.40 -6.70 6.40 -13.15 12.40 -14.25 13.25 -1.10 0.90 -4.25 3.70 -7 6.15 -2.70 2.50 -7.15 6.40 -9.85 8.75 -2.70 2.35 -6.75 5.90 -8.95 7.85 -7.10 6.40 -24.15 19 -32.80 24.25 -2.05 1.25 -6.65 4.25 -10.25 6.60 -3.55 2.40 -7.85 5.15 -9.50 6.10 -1.65 0.95 -5.60 3.55 -8.75 5.75 -3.15 2.20 -7 4.80 -8.50 5.80 -1.50 1.05 -3.55 2.55 -4.55 3.40 -1.05 0.80 -3.30 2.50 -5 3.75 -11.25 7.85 -28.70 24.25 -37.20 35 -5.80 7.25 -11.60 16.35 -15.15 23.75 -1.20 2.45 -2.45 4.80 -2.85 5.25 -0.35 0.40 -1 1.65 -1.45 2.75 -0.40 1.10 -1.80 4.70 -3.10 8 -2.90 7.45 -4.30 11.85 -5.40 17 -0.50 2.20 -1.10 4.75 -1.40 5.65 -0.80 2.75 -1.50 9.40 -2.65 25.70 -0.65 9.20 -0.75 10.05 -2.10 12.50 -3.35 6.20 -13.25 14.10 -25.40 20.30 -8.75 4.45 -20.80 9 -28 10.55 -1.35 0.25 -4.15 0.90 -6.15 1.35 -7.05 1.55 -12.90 2.20 -20 2.20 -7.75 0 -12.45 -0.70 -18.35 -2.80 -4.90 -1.75 -7.30 -3.30 -11.55 -7.35 -6.05 -5.70 -9.50 -12.05 -14.45 -26.40 -3.05 -9 -4.75 -12.45 -6.90 -14.25 -1.80 -1.50 -2.90 -1.50 -5.25 0.05 -2.90 1.90 -5 5.80 -6.15 11.55 -1.15 5.85 -1.25 9.05 -0.45 13.60 2.60 13.90 8.60 24 19.30 32.20 3.45 2.65 10.60 6.95 14.05 8.45 3.70 1.65 12.75 4.45 14.40 4.50 0.85 0 2.40 0.30 3.50 0.70 2.95 0.95 18.90 0.95 25.65 0z"/>
  </g>
</svg>