<?xml version="1.0" encoding="utf-8"?>
<svg version="1.0" width="894px" height="827px" viewBox="0 0 894 827" preserveAspectRatio="xMidYMid meet" xmlns="http://www.w3.org/2000/svg">
  <g fill="#000000">
    <path d="M 251 818.15 c -0.95 -0.05 -3.90 -0.40 -6.50 -0.70 -2.60 -0.30 -7.20 -0.70 -10.25 -0.95 -3.25 -0.20 -5.55 -0.60 -5.65 -0.95 -0.10 -0.30 -1.25 -0.55 -2.60 -0.55 -3.25 0 -7.30 -0.90 -8.05 -1.80 -0.30 -0.40 -1.30 -0.70 -2.20 -0.70 -0.90 0 -1.90 -0.35 -2.25 -0.75 -0.40 -0.45 -1.45 -0.75 -2.80 -0.75 -1.65 0 -2.30 -0.25 -2.70 -1 -0.35 -0.60 -1.05 -1 -1.90 -1 -0.75 0 -2 -0.45 -2.85 -1 -0.80 -0.55 -2 -1 -2.60 -1 -0.65 0 -1.40 -0.45 -1.75 -1 -0.45 -0.65 -1.20 -1 -2.25 -1 -1.10 0 -1.65 -0.30 -1.90 -0.95 -0.15 -0.60 -0.95 -1.05 -2.05 -1.30 -0.95 -0.15 -1.90 -0.65 -2.05 -1.05 -0.15 -0.35 -0.60 -0.70 -0.95 -0.70 -0.40 0 -0.85 -0.35 -1 -0.75 -0.20 -0.40 -0.80 -0.75 -1.40 -0.75 -0.60 0 -1.60 -0.50 -2.15 -1.10 -1.50 -1.70 -3.10 -2.90 -3.80 -2.90 -0.35 0 -2.05 -1.35 -3.85 -3.05 -1.80 -1.65 -5.25 -4.65 -7.75 -6.65 -5.15 -4.20 -5.90 -5 -8.40 -8.80 -1 -1.50 -2.60 -3.40 -3.60 -4.25 -1.90 -1.55 -7.40 -8.55 -10.40 -13.35 -1 -1.55 -2.05 -2.95 -2.35 -3.15 -0.25 -0.15 -0.50 -0.80 -0.50 -1.40 0 -0.65 -0.45 -1.50 -1 -2 -0.55 -0.45 -1 -1.40 -1 -2.05 0 -0.65 -0.35 -1.30 -0.75 -1.50 -0.40 -0.15 -0.75 -0.70 -0.75 -1.25 0 -1.50 -0.55 -2.55 -1.30 -2.55 -0.45 0 -0.70 -0.55 -0.70 -1.50 0 -0.90 -0.40 -1.85 -1 -2.35 -0.55 -0.50 -1.15 -1.60 -1.30 -2.45 -0.15 -0.90 -0.60 -1.75 -1 -1.90 -0.50 -0.20 -0.70 -1.10 -0.70 -3 0 -2.25 -0.15 -2.70 -1 -2.95 -0.85 -0.20 -1 -0.70 -1 -2.95 0 -2.10 -0.20 -2.80 -1 -3.30 -0.80 -0.50 -1 -1.15 -1 -3.60 0 -2.20 -0.20 -3 -0.70 -3 -0.85 0 -1.30 -2.20 -1.30 -6.30 0 -2.40 -0.15 -3.20 -0.70 -3.20 -1.10 0 -1.30 -1.20 -1.30 -8.40 0 -4.60 -0.25 -7.65 -0.75 -9.30 -1 -3.25 -1 -6.80 0 -6.80 0.45 0 0.85 0.70 1.05 1.90 0.15 1 0.50 2.55 0.75 3.35 0.45 1.45 0.45 1.45 0.20 -0.25 -0.80 -5 -0.85 -8.15 -0.25 -10 0.35 -1.10 0.50 -2.15 0.35 -2.30 -0.15 -0.20 -0.55 0.70 -0.90 2 -0.35 1.35 -0.85 2.30 -1.25 2.30 -0.90 0 -0.90 -2.65 0.05 -5.25 0.50 -1.35 0.75 -4.15 0.75 -8.50 0 -7.60 0.35 -10.25 1.30 -10.25 0.50 0 0.70 -0.75 0.70 -2.60 0 -3.90 0.55 -6.40 1.30 -6.40 0.55 0 0.70 -0.90 0.70 -3.70 0 -4.15 0.30 -5.30 1.30 -5.30 0.50 0 0.70 -0.70 0.70 -2.45 0 -2.95 0.35 -4.05 1.30 -4.05 0.50 0 0.70 -0.75 0.70 -2.75 0 -2 0.20 -2.75 0.70 -2.75 0.90 0 1.30 -1.10 1.30 -3.55 0 -1.40 0.20 -1.95 0.75 -1.95 0.50 0 0.75 -0.50 0.75 -1.40 0 -0.75 0.45 -2.20 1 -3.25 0.55 -1 1 -2.30 1 -2.85 0 -0.55 0.45 -1.40 1 -1.85 0.55 -0.50 1 -1.35 1 -1.95 0 -0.60 0.35 -1.75 0.70 -2.55 0.40 -0.75 1.50 -2.90 2.40 -4.70 4.85 -9.85 6.75 -13.10 7.55 -13.35 0.55 -0.15 0.85 -0.70 0.85 -1.60 0 -0.75 0.45 -1.75 1 -2.25 0.55 -0.50 1 -1.10 1 -1.30 0 -0.20 0.75 -1.45 1.65 -2.75 0.85 -1.25 2.10 -3.25 2.75 -4.35 0.60 -1.15 1.55 -2.55 2.05 -3.10 0.50 -0.55 1.30 -1.70 1.70 -2.55 0.45 -0.80 1.75 -2.60 2.95 -4 1.20 -1.35 2.50 -3.10 2.90 -3.85 0.40 -0.80 1.75 -2.55 3.05 -3.95 3 -3.20 5.50 -6.25 6.50 -7.85 1.05 -1.70 24.40 -25.20 27.75 -27.95 1.45 -1.15 2.85 -2.10 3.20 -2.10 0.70 0 22.95 -22.20 24.25 -24.20 0.50 -0.70 1.20 -1.30 1.55 -1.30 0.40 0 0.70 -0.50 0.70 -1.15 0 -0.70 0.75 -1.90 1.90 -2.95 3.55 -3.40 7.65 -7.95 9.10 -10.05 0.80 -1.15 2.70 -3.55 4.25 -5.35 1.55 -1.80 3.25 -4.05 3.75 -5 0.50 -0.95 1.90 -2.75 3.05 -4 1.15 -1.25 2.45 -2.80 2.85 -3.50 0.45 -0.70 2.75 -3.85 5.15 -7.05 2.40 -3.20 4.60 -6.35 4.95 -6.95 0.90 -1.75 4.05 -5.70 4.80 -6.15 0.40 -0.20 0.70 -0.80 0.70 -1.25 0 -0.50 0.85 -1.90 1.90 -3.20 1 -1.30 2.95 -3.90 4.30 -5.85 1.35 -1.95 2.65 -3.55 2.90 -3.55 0.20 0 0.40 -0.40 0.40 -0.90 0 -0.45 0.90 -1.75 1.95 -2.90 1.10 -1.10 2.10 -2.55 2.30 -3.25 0.15 -0.70 0.95 -1.95 1.75 -2.75 0.75 -0.85 1.85 -2.40 2.40 -3.50 0.60 -1.05 1.95 -2.90 3.10 -4.10 1.10 -1.20 2 -2.35 2 -2.60 0 -0.25 0.80 -1.50 1.80 -2.80 1 -1.30 2.55 -3.50 3.45 -4.90 0.90 -1.45 2.05 -2.90 2.50 -3.30 0.45 -0.40 1.60 -1.85 2.50 -3.25 0.90 -1.35 2.40 -3.35 3.35 -4.35 0.90 -1.05 2.55 -3.15 3.65 -4.70 1.10 -1.55 2.90 -3.80 4 -4.90 1.10 -1.15 3 -3.55 4.25 -5.30 3.70 -5.20 28.75 -29.95 33.65 -33.20 1.55 -1.05 2.85 -2.10 2.85 -2.35 0 -0.25 1.20 -1.15 2.70 -1.95 1.50 -0.85 3 -1.90 3.30 -2.25 0.35 -0.40 0.85 -0.75 1.10 -0.75 0.25 0 1.75 -0.90 3.35 -2 1.55 -1.10 3.10 -2 3.40 -2 0.30 0 0.80 -0.35 1.15 -0.75 0.35 -0.40 0.95 -0.75 1.35 -0.75 0.40 0 1.30 -0.45 2 -1 0.70 -0.55 1.90 -1 2.65 -1 0.80 0 1.50 -0.35 1.70 -0.75 0.15 -0.40 0.85 -0.75 1.55 -0.75 0.70 0 1.65 -0.45 2.10 -1 0.60 -0.65 1.50 -1 2.75 -1 1.30 0 2.20 -0.35 2.75 -1 0.65 -0.75 1.50 -1 3.25 -1 1.70 0 2.40 -0.20 2.40 -0.70 0 -0.95 1.10 -1.30 4.05 -1.30 1.80 0 2.70 -0.25 3.45 -1 0.90 -0.90 1.65 -1 6.75 -1 4.60 0 5.75 -0.15 5.75 -0.70 0 -0.40 0.35 -0.85 0.80 -1 1.05 -0.40 22.90 -0.40 25.90 0 1.45 0.20 2.30 0.60 2.30 1 0 0.55 1.35 0.70 6.45 0.70 7.80 0 11.05 0.40 11.05 1.30 0 0.45 0.65 0.70 1.90 0.70 3.80 0 7.10 0.60 7.10 1.30 0 0.50 0.80 0.70 3 0.70 2.25 0 3.05 0.20 3.40 0.85 0.35 0.60 1.35 0.90 3.55 1.05 2.15 0.15 3.05 0.40 3.05 0.90 0 0.45 0.60 0.70 1.65 0.70 0.85 0 2.35 0.45 3.25 1 0.90 0.55 2.05 1 2.60 1 0.50 0 1.25 0.30 1.60 0.65 0.35 0.35 1.60 0.95 2.80 1.30 1.15 0.40 2.10 0.90 2.10 1.15 0 0.20 0.55 0.40 1.15 0.40 0.65 0 1.60 0.45 2.10 1 0.50 0.55 1.25 1 1.65 1 0.35 0 1.35 0.45 2.15 1 0.75 0.60 2.50 1.65 3.85 2.40 3.95 2.25 6.10 3.65 6.10 4.15 0 0.25 0.35 0.45 0.75 0.45 0.40 0 0.75 0.30 0.75 0.70 0 0.70 1.05 1.30 2.30 1.30 0.45 0 2.10 1.30 3.70 2.85 1.65 1.60 4.45 4.05 6.20 5.40 4.20 3.25 14.65 13.85 15.30 15.50 0.25 0.70 0.70 1.25 1 1.25 0.25 0 0.50 0.25 0.50 0.55 0 0.35 1.35 1.95 3.05 3.60 1.65 1.70 3.85 4.20 4.85 5.65 1.05 1.45 3.90 5.35 6.35 8.65 4.20 5.60 6.05 8.25 8.50 12.30 1.35 2.20 2.85 4.35 3.60 5.15 0.35 0.35 0.65 1.05 0.65 1.50 0 0.50 0.45 1.15 1 1.50 0.55 0.35 1 0.95 1 1.35 0 0.40 0.25 0.75 0.55 0.75 0.25 0 0.85 0.80 1.25 1.75 0.40 0.95 0.90 1.75 1.15 1.75 0.30 0 0.65 0.45 0.80 1 0.15 0.55 0.60 1.30 0.90 1.60 1.30 1.40 3.35 4.75 3.35 5.50 0 0.40 0.80 1.65 1.75 2.70 1 1.05 1.95 2.50 2.10 3.20 0.15 0.70 0.75 1.55 1.25 1.90 0.50 0.35 0.90 0.90 0.90 1.20 0 0.30 0.75 1.55 1.65 2.85 0.85 1.25 1.90 2.90 2.25 3.60 0.40 0.75 1.25 1.90 1.90 2.60 0.65 0.70 1.30 1.85 1.45 2.50 0.20 0.70 0.65 1.40 1.05 1.55 0.40 0.15 0.70 0.60 0.70 0.95 0 0.40 0.45 1.10 1 1.60 0.55 0.50 1 1.20 1 1.60 0 0.35 0.35 0.80 0.75 0.95 0.40 0.20 0.75 0.60 0.75 1 0 0.35 0.55 1.20 1.25 1.90 0.70 0.70 1.25 1.45 1.25 1.65 0 0.20 0.90 1.60 2 3.05 1.10 1.45 2 2.70 2 2.85 0 0.55 5.50 7.90 6.15 8.15 0.20 0.10 0.35 0.50 0.35 0.90 0 0.40 0.25 0.70 0.50 0.70 0.30 0 0.50 0.30 0.50 0.70 0 0.40 0.40 1.05 0.90 1.40 0.50 0.35 1.55 1.70 2.30 3 0.75 1.25 1.65 2.45 2.05 2.60 0.40 0.15 0.75 0.55 0.75 0.90 0 0.40 0.40 1 0.90 1.45 1.40 1.25 4.30 5 4.90 6.40 0.35 0.70 2.15 2.90 4 4.85 3.90 4 9.70 10.50 9.70 10.85 0 0.95 13.95 15.15 16.35 16.70 0.80 0.50 1.70 1.30 2.05 1.75 0.35 0.50 1.35 1.25 2.20 1.70 0.80 0.45 8.30 7.55 16.60 15.85 15.85 15.85 17.15 17.25 19.65 20.85 0.85 1.25 2.35 3.15 3.35 4.25 2.55 2.85 2.80 3.15 2.80 3.60 0 0.25 1 1.55 2.25 3 1.25 1.40 2.25 2.80 2.25 3.10 0 0.30 0.25 0.55 0.50 0.55 0.30 0 0.50 0.35 0.50 0.75 0 0.40 0.40 1.15 0.90 1.65 0.45 0.50 1.50 1.90 2.35 3.10 0.80 1.25 2.10 3 2.85 3.90 0.80 0.90 1.75 2.35 2.15 3.25 0.45 0.90 1.55 2.95 2.55 4.60 0.95 1.65 2.20 3.95 2.75 5.15 0.55 1.15 1.20 2.10 1.45 2.10 0.30 0 0.50 0.45 0.50 1 0 0.55 0.45 1.40 1 1.85 0.55 0.50 1 1.40 1 2 0 0.65 0.45 1.55 1 2 0.60 0.55 1 1.50 1 2.45 0 1.15 0.25 1.65 1 1.85 0.80 0.20 1 0.70 1 2.30 0 1.70 0.15 2.05 1 2.05 0.85 0 1 0.35 1 2.45 0 2 0.15 2.50 1 2.70 0.80 0.20 1 0.70 1 2.30 0 1.40 0.20 2.05 0.70 2.05 0.80 0 1.30 1.50 1.30 3.90 0 1.05 0.25 1.60 0.70 1.60 0.85 0 1.30 1.10 1.30 3.05 0 0.85 0.40 1.80 1 2.30 0.75 0.65 1 1.50 1 3.50 0 1.45 0.20 2.65 0.40 2.65 0.80 0 1.60 2.55 1.60 5.15 0 1.80 0.30 3 1 3.85 1.15 1.50 1.35 4.50 0.30 4.50 -0.40 0 -0.85 -0.40 -0.95 -0.85 -0.15 -0.50 -0.25 0.10 -0.25 1.35 0 1.25 0.10 1.85 0.25 1.40 0.30 -1.25 1.65 -1.15 1.65 0.10 0 0.60 0.45 1.90 1 3 0.85 1.65 1 2.95 1 8.60 0 4.50 0.25 7.30 0.75 8.65 0.95 2.70 1 5.75 0.05 5.75 -0.40 0 -0.85 -0.40 -0.95 -0.85 -0.15 -0.50 -0.25 0.10 -0.25 1.35 0 1.25 0.10 1.85 0.25 1.40 0.40 -1.65 1.65 -1 1.65 0.85 0 1.85 -1.25 2.50 -1.65 0.90 -0.15 -0.50 -0.25 0.10 -0.25 1.35 0 1.25 0.10 1.85 0.25 1.40 0.10 -0.50 0.55 -0.90 0.95 -0.90 0.95 0 0.90 2.55 -0.15 6.25 -0.55 2.10 -0.85 5.10 -0.85 9.90 -0.05 5.15 -0.20 7 -0.70 7.30 -0.60 0.35 -1.55 5.30 -1.60 8.20 0 0.45 -0.35 0.85 -0.75 0.85 -0.40 0 -0.75 0.25 -0.75 0.50 0 0.85 -1.40 0.55 -1.65 -0.35 -0.15 -0.50 -0.25 0.10 -0.25 1.35 0 1.25 0.10 1.85 0.25 1.40 0.10 -0.50 0.55 -0.90 0.95 -0.90 1.05 0 0.90 3.15 -0.25 4.20 -0.50 0.50 -1.05 1.80 -1.15 3.05 -0.15 1.20 -0.65 2.55 -1.10 3 -0.45 0.45 -0.80 1.60 -0.80 2.55 0 1.05 -0.40 2.10 -1 2.70 -0.55 0.55 -1 1.60 -1 2.30 0 0.85 -0.30 1.40 -1 1.55 -0.80 0.20 -1 0.70 -1 2.25 0 1.55 -0.20 2.05 -1 2.25 -0.75 0.20 -1 0.70 -1 1.95 0 1.35 -0.20 1.70 -1 1.70 -0.80 0 -1 0.35 -1 1.75 0 1.20 -0.25 1.75 -0.75 1.75 -0.40 0 -0.85 0.55 -1.05 1.25 -0.15 0.70 -0.60 1.25 -0.95 1.25 -0.35 0 -0.75 0.70 -0.95 1.55 -0.15 0.80 -1.05 2.35 -2.05 3.35 -0.95 1 -1.75 2.10 -1.75 2.40 0 0.25 -1.20 1.95 -2.65 3.75 -1.40 1.75 -3.25 4.05 -4 5.10 -2.30 3.10 -11.40 12 -14.60 14.35 -1.65 1.20 -3.80 3 -4.75 4 -1.80 1.80 -2.95 2.65 -4.75 3.45 -0.55 0.25 -1.45 0.90 -2 1.40 -0.55 0.50 -1.80 1.40 -2.75 1.95 -0.95 0.50 -2.40 1.45 -3.15 2.10 -0.80 0.60 -1.80 1.10 -2.25 1.10 -0.50 0 -1.15 0.45 -1.50 1 -0.35 0.55 -1.15 1 -1.85 1 -0.80 0 -1.25 0.30 -1.25 0.75 0 0.45 -0.45 0.75 -1.20 0.75 -0.65 0 -1.45 0.35 -1.80 0.75 -0.50 0.65 -0.45 0.75 0.45 0.75 0.85 0 1.05 0.30 1.05 1.75 0 1.70 -0.10 1.75 -1.80 1.75 -1.75 0 -1.80 -0.05 -1.60 -1.50 0.20 -1.35 0.10 -1.50 -0.80 -1.20 -0.60 0.15 -1.30 0.60 -1.60 1 -0.30 0.40 -1.15 0.70 -1.90 0.70 -0.70 0 -1.75 0.45 -2.25 0.95 -0.55 0.55 -1.80 1.15 -2.75 1.30 -0.95 0.20 -2 0.65 -2.35 1.05 -0.30 0.40 -1.40 0.70 -2.45 0.70 -1.15 0 -2 0.25 -2.15 0.70 -0.15 0.40 -1.30 0.75 -2.80 0.90 -1.40 0.15 -2.95 0.60 -3.45 1.10 -0.60 0.50 -1.80 0.80 -3.45 0.80 -1.40 0 -3.55 0.40 -4.75 0.95 -1.40 0.60 -3.80 1 -6.75 1.15 -2.95 0.15 -4.85 0.45 -5.45 0.95 -1.15 0.95 -22.25 1.30 -27.45 0.45 -1.90 -0.30 -6.15 -0.75 -9.35 -0.95 -4.20 -0.30 -6.25 -0.65 -7.15 -1.25 -1 -0.65 -2.55 -0.90 -6.10 -0.95 -3.90 -0.10 -4.80 -0.25 -5.20 -0.95 -0.30 -0.50 -0.85 -0.90 -1.20 -0.90 -1.05 0 -0.95 -1.40 0.15 -1.65 0.45 -0.15 -0.25 -0.25 -1.65 -0.25 -1.35 0 -2.10 0.10 -1.60 0.25 0.45 0.10 0.75 0.45 0.60 0.70 -0.45 0.65 -3.45 0.55 -4.10 -0.10 -0.30 -0.30 -2.30 -0.75 -4.45 -0.95 -2.75 -0.25 -3.95 -0.60 -4.30 -1.20 -0.35 -0.60 -1.20 -0.80 -3.55 -0.80 -2.55 0 -3.25 -0.20 -3.85 -1 -0.55 -0.80 -1.30 -1 -3.35 -1 -2.10 0 -2.75 -0.20 -3.25 -1 -0.50 -0.80 -1.20 -1 -3.50 -1 -3.25 0 -4.40 -0.35 -4.40 -1.30 0 -0.50 -0.75 -0.70 -3 -0.70 -2.45 0 -3.10 -0.20 -3.60 -1 -0.50 -0.80 -1.20 -1 -3.25 -1 -3.05 0 -4.15 -0.35 -4.15 -1.30 0 -0.45 -0.60 -0.70 -1.85 -0.70 -3.20 0 -5.65 -0.60 -5.65 -1.30 0 -0.50 -0.70 -0.70 -2.50 -0.70 -1.85 0 -2.75 -0.25 -3.50 -1 -0.80 -0.80 -1.65 -1 -4.05 -1 -1.65 0 -3.45 -0.25 -4 -0.50 -1.30 -0.75 -1.25 -2.50 0.10 -2.50 0.55 0 0.85 0.25 0.70 0.50 -0.45 0.75 0.05 0.60 0.75 -0.25 0.55 -0.65 0.25 -0.75 -2.05 -0.70 -1.50 0.05 -2.30 0.15 -1.80 0.30 1.35 0.35 1.05 1.65 -0.45 1.65 -1.85 0 -5.70 -1.05 -5.70 -1.55 0 -0.25 -1.80 -0.45 -4 -0.45 -3.40 0 -4.15 -0.15 -4.85 -1 -0.75 -0.85 -1.50 -1 -4.55 -1 -2.10 0 -4.20 -0.30 -5 -0.70 -0.75 -0.35 -3.35 -0.80 -5.80 -0.95 -2.45 -0.15 -4.55 -0.45 -4.75 -0.75 -0.15 -0.25 -1.15 -0.60 -2.15 -0.80 -2 -0.35 -2.60 -1.55 -1 -1.95 0.45 -0.15 -1.40 -0.25 -4.15 -0.25 -2.75 0 -4.60 0.10 -4.10 0.25 0.45 0.10 0.85 0.55 0.85 1 0 0.65 -0.55 0.70 -3.85 0.45 -2.15 -0.20 -5.35 -0.60 -7.15 -0.90 -4.30 -0.75 -18.45 -0.70 -22.25 0.05 -1.65 0.30 -5.40 0.70 -8.35 0.90 -4.70 0.25 -5.40 0.20 -5.40 -0.50 0 -0.40 0.40 -0.90 0.90 -1 0.45 -0.15 -0.40 -0.25 -1.90 -0.25 -1.50 0 -2.35 0.10 -1.85 0.25 1.35 0.35 1 1.60 -0.50 1.95 -0.80 0.20 -1.50 0.55 -1.65 0.75 -0.15 0.25 -2.20 0.55 -4.50 0.70 -2.35 0.20 -5.35 0.65 -6.75 1 -1.35 0.40 -3.70 0.80 -5.15 0.95 -1.45 0.15 -3.10 0.60 -3.70 1.05 -0.75 0.50 -2.25 0.75 -4.45 0.75 -2.40 0 -3.40 0.20 -3.60 0.70 -0.15 0.40 -1.45 0.80 -3.20 1.05 -1.60 0.20 -3.05 0.60 -3.25 0.95 -0.20 0.30 -2.20 0.60 -4.90 0.70 -3.90 0.20 -4.50 0.30 -4.50 1.10 0 0.75 -0.55 0.90 -3.30 1.10 -2.45 0.15 -3.45 0.45 -3.80 1.05 -0.30 0.60 -1.10 0.85 -2.95 0.85 -1.85 0 -2.65 0.25 -3.30 1 -0.70 0.80 -1.50 1 -4.20 1 -2.90 0 -3.35 0.15 -3.60 1 -0.20 0.85 -0.70 1 -3.55 1 -2.95 0 -3.30 0.10 -3.30 1 0 0.90 -0.35 1 -3.15 1 -2.55 0 -3.40 0.20 -4.10 1 -0.70 0.75 -1.55 1 -3.55 1 -1.70 0 -2.90 0.25 -3.40 0.75 -0.45 0.50 -2.10 0.90 -4.15 1.10 -1.95 0.15 -3.80 0.60 -4.30 1.05 -0.50 0.45 -2.35 0.90 -4.50 1.10 -1.95 0.15 -4.30 0.70 -5.20 1.15 -0.90 0.45 -2.70 0.85 -4 0.85 -1.35 0 -2.85 0.30 -3.40 0.70 -0.60 0.40 -2.95 0.75 -5.75 0.95 -2.70 0.15 -5.55 0.60 -6.60 1.05 -1.05 0.45 -3.25 0.80 -5 0.80 -1.75 0 -5.15 0.25 -7.65 0.50 -10.75 1.20 -10.75 1.20 -10.75 0.35 0 -0.40 0.40 -0.90 0.90 -1 0.45 -0.15 -0.05 -0.25 -1.15 -0.25 -1.10 0 -1.60 0.10 -1.10 0.25 1.05 0.30 1.10 1.45 0.05 1.85 -0.80 0.30 -1.90 0.30 -5.20 -0.05 z  m 361.40 -1.50 c -0.50 -0.10 -1.30 -0.10 -1.75 0 -0.50 0.15 -0.10 0.25 0.85 0.25 0.95 0 1.35 -0.10 0.90 -0.25 z  m -361.50 -0.50 c -0.50 -0.10 -1.30 -0.10 -1.75 0 -0.50 0.15 -0.10 0.25 0.85 0.25 0.95 0 1.35 -0.10 0.90 -0.25 z  m -4 -0.50 c -0.50 -0.10 -1.30 -0.10 -1.75 0 -0.50 0.15 -0.10 0.25 0.85 0.25 0.95 0 1.35 -0.10 0.90 -0.25 z  m 152 -29.50 c -0.50 -0.10 -1.30 -0.10 -1.75 0 -0.50 0.15 -0.10 0.25 0.85 0.25 0.95 0 1.35 -0.10 0.90 -0.25 z  m 346.45 -141.50 c -0.15 -0.50 -0.25 -0.10 -0.25 0.85 0 0.95 0.10 1.35 0.25 0.90 0.10 -0.50 0.10 -1.30 0 -1.75 z  m -317.95 -325 c -0.50 -0.10 -1.30 -0.10 -1.75 0 -0.50 0.15 -0.10 0.25 0.85 0.25 0.95 0 1.35 -0.10 0.90 -0.25 z "/>
    <path d="M 129.80 631.20 c -0.15 -0.45 -0.30 -1.45 -0.30 -2.25 0 -1.45 0.10 -1.50 1.90 -1.35 1.80 0.15 1.85 0.20 2 2.30 0.15 2.10 0.15 2.10 -1.55 2.10 -1.15 0 -1.85 -0.30 -2.05 -0.80 z "/>
    <path d="M 116.55 476 c -0.95 -0.80 -1.90 -1 -5.35 -1 -3.65 0 -4.25 -0.15 -4.80 -1 -0.55 -0.80 -1.20 -1 -3.75 -1 -2.05 0 -3.30 -0.25 -3.85 -0.75 -0.40 -0.40 -1.60 -0.75 -2.75 -0.75 -1.10 0 -2.30 -0.30 -2.65 -0.70 -0.40 -0.35 -1.25 -0.85 -1.90 -1.05 -0.70 -0.20 -1.95 -0.80 -2.80 -1.30 -0.85 -0.55 -2.25 -0.95 -3.15 -0.95 -1 0 -1.55 -0.25 -1.55 -0.70 0 -0.40 -0.65 -0.85 -1.50 -1.05 -0.80 -0.20 -1.50 -0.50 -1.50 -0.70 0 -0.25 -0.85 -0.75 -1.85 -1.25 -1.05 -0.45 -2.80 -1.35 -3.90 -2.05 -1.10 -0.70 -2.50 -1.50 -3.10 -1.80 -0.65 -0.35 -1.15 -0.80 -1.15 -1 0 -0.25 -0.75 -0.75 -1.70 -1.15 -0.95 -0.40 -2.55 -1.45 -3.60 -2.40 -1.10 -0.95 -2.75 -2.25 -3.70 -2.90 -3.45 -2.25 -23.55 -22.30 -24.85 -24.75 -0.45 -0.80 -2 -3 -3.45 -4.80 -1.50 -1.80 -2.70 -3.65 -2.70 -4 0 -0.40 -0.45 -1 -1 -1.35 -0.55 -0.35 -1 -0.95 -1 -1.35 0 -0.40 -0.45 -1.15 -1 -1.60 -0.55 -0.50 -1 -1.25 -1 -1.75 0 -0.45 -0.45 -1.10 -1 -1.40 -0.60 -0.35 -1 -1.05 -1 -1.90 0 -0.80 -0.40 -1.60 -1 -2 -0.55 -0.35 -1 -0.95 -1 -1.35 0 -0.40 -0.45 -1.20 -1 -1.75 -0.55 -0.55 -1 -1.55 -1 -2.25 0 -0.70 -0.40 -1.45 -1 -1.75 -0.65 -0.35 -1 -1.05 -1 -2 0 -1.15 -0.20 -1.50 -1 -1.50 -0.80 0 -1 -0.35 -1 -1.75 0 -1.40 -0.20 -1.75 -1 -1.75 -0.85 0 -1 -0.35 -1 -2.45 0 -1.65 -0.25 -2.55 -0.70 -2.70 -0.40 -0.15 -0.90 -1.15 -1.05 -2.20 -0.15 -1.05 -0.65 -2.50 -1.05 -3.25 -0.40 -0.70 -0.70 -1.80 -0.70 -2.35 0 -0.60 -0.45 -1.50 -1 -2.05 -0.75 -0.75 -1 -1.65 -1 -3.75 0 -1.75 -0.25 -2.85 -0.70 -3.10 -0.40 -0.25 -0.75 -1.70 -0.95 -3.60 -0.20 -2.20 -0.50 -3.35 -1.05 -3.65 -0.65 -0.35 -0.80 -1.35 -0.80 -4.65 0 -3.30 -0.15 -4.25 -0.70 -4.25 -0.90 0 -1.30 -2.20 -1.30 -7.05 0 -3 -0.15 -3.95 -0.70 -3.95 -0.90 0 -1.30 -4.60 -1.30 -15.50 0 -12.05 0.45 -18.50 1.35 -18.50 0.50 0 0.65 -1.20 0.65 -5.30 0 -4.85 0.10 -5.30 1 -5.55 0.90 -0.25 1 -0.70 1 -4.15 0 -4.35 0.25 -5.50 1.30 -5.50 0.50 0 0.70 -0.75 0.70 -3 0 -2.25 0.20 -3.10 0.75 -3.30 0.40 -0.20 0.75 -0.90 0.75 -1.65 0.05 -0.70 0.45 -2.20 1 -3.30 0.55 -1.10 0.95 -2.40 1 -2.90 0 -0.55 0.45 -1.50 1 -2.20 0.55 -0.70 1 -1.55 1 -1.90 0 -0.35 0.35 -0.90 0.75 -1.25 0.40 -0.35 0.75 -1 0.75 -1.45 0 -0.50 0.55 -1.60 1.25 -2.55 0.70 -0.95 1.25 -2.10 1.25 -2.55 0 -0.50 0.30 -1.10 0.65 -1.30 0.30 -0.20 0.85 -0.75 1.10 -1.20 2 -3.30 4.70 -6.95 6.10 -8.25 0.90 -0.90 1.65 -1.80 1.65 -2.10 0 -0.90 5.10 -6.15 8 -8.25 1.50 -1.10 3.65 -2.95 4.75 -4.10 2.25 -2.30 4.35 -3.75 5.45 -3.75 0.45 0 1 -0.45 1.30 -1 0.30 -0.55 1.05 -1 1.70 -1 0.65 0 1.55 -0.45 2.05 -1 0.50 -0.55 1.15 -1 1.50 -1 0.35 0 1.10 -0.45 1.75 -1 0.65 -0.55 1.50 -1 1.95 -1 0.45 0 1.20 -0.35 1.70 -0.75 0.55 -0.35 1.80 -0.80 2.85 -1 1.10 -0.20 2.20 -0.65 2.50 -1 0.30 -0.35 1.70 -0.80 3.15 -1 1.45 -0.20 3.05 -0.60 3.60 -0.90 0.55 -0.30 3.55 -0.70 6.65 -0.90 3.20 -0.25 6 -0.65 6.45 -1 1.25 -1.05 8.50 -1.15 12.15 -0.20 1.80 0.50 5.60 1.05 8.50 1.25 2.90 0.25 6.50 0.75 8 1.20 1.50 0.45 3.10 0.80 3.55 0.80 0.45 0 0.95 0.30 1.10 0.70 0.15 0.40 1.40 0.85 2.95 1.05 1.55 0.20 3 0.75 3.55 1.30 0.50 0.55 1.35 0.95 1.95 0.95 1.20 0 5.30 1.85 6.30 2.85 0.35 0.35 1.20 0.65 1.90 0.65 0.65 0 1.45 0.45 1.80 1 0.35 0.55 1.15 1 1.75 1 0.60 0 1.35 0.45 1.65 1 0.30 0.60 1.05 1 1.80 1 0.80 0 2.25 0.80 3.70 2 1.30 1.10 2.60 2 2.90 2 0.25 0 1.45 0.90 2.65 2 1.20 1.10 2.40 2 2.60 2 1.05 0 7.85 6.15 7.85 7.05 0 0.25 0.40 0.45 0.90 0.45 0.50 0 1.35 0.45 1.90 1.05 0.50 0.55 1.50 1.50 2.10 2.10 4.40 4.10 8.60 8.70 8.60 9.45 0 0.50 0.20 0.90 0.45 0.90 1.05 0 7.05 7.05 7.05 8.25 0 0.15 0.80 1.10 1.75 2.10 0.95 0.95 1.85 2.25 2.05 2.85 0.20 0.55 0.75 1.50 1.25 2.05 2.05 2.25 2.95 3.45 2.95 4 0 0.35 0.45 1.20 1 1.90 0.55 0.70 1 1.60 1 2 0 0.35 0.45 1.10 1 1.60 0.55 0.50 1 1.20 1 1.55 0 0.35 0.30 0.95 0.65 1.30 0.35 0.35 0.95 1.40 1.30 2.30 0.35 0.85 0.85 1.60 1.10 1.60 0.25 0 0.45 0.25 0.45 0.60 0 0.55 2 5.15 3.25 7.50 0.40 0.70 0.75 2 0.75 2.85 0 1.05 0.25 1.55 0.75 1.55 0.50 0 0.80 0.80 1.05 2.50 0.20 1.60 0.55 2.50 1 2.50 0.50 0 0.70 0.70 0.70 2.45 0 2.05 0.20 2.55 1 2.80 0.85 0.25 1 0.75 1 3.30 0 2.60 0.10 2.95 1 2.95 0.90 0 1 0.35 1 3.50 0 2.65 0.15 3.50 0.70 3.50 1 0 1.30 1.15 1.30 4.80 0 2.35 0.20 3.20 0.70 3.20 0.80 0 1.30 3.50 1.30 9.55 0 3.90 0.10 4.35 1 4.60 0.95 0.25 1 0.70 1 16.60 0 15.90 -0.05 16.35 -1 16.60 -0.90 0.25 -1 0.70 -1 5.35 0 5.70 -0.30 7.30 -1.30 7.30 -0.50 0 -0.70 0.75 -0.70 2.95 0 3.40 -0.30 4.55 -1.30 4.55 -0.50 0 -0.70 0.65 -0.70 2.15 0 2.80 -0.45 4.35 -1.30 4.35 -0.50 0 -0.70 0.65 -0.70 2.05 0 1.30 -0.35 2.50 -1 3.30 -0.55 0.70 -1 1.90 -1 2.65 0 0.80 -0.35 1.50 -0.75 1.70 -0.45 0.15 -0.75 0.90 -0.75 1.75 0 1 -0.35 1.70 -1 2.05 -0.65 0.35 -1 1.05 -1 2 0 0.80 -0.30 1.65 -0.60 1.85 -0.35 0.20 -1.20 1.60 -1.90 3 -0.70 1.45 -1.65 2.75 -2.10 2.90 -0.45 0.15 -0.95 0.95 -1.15 1.70 -0.15 0.75 -1.05 2.15 -2 3.10 -0.95 0.95 -1.75 1.95 -1.75 2.25 0 0.80 -10.95 12.20 -11.70 12.20 -0.35 0 -1.95 1.25 -3.55 2.75 -1.65 1.50 -3.15 2.75 -3.45 2.75 -0.25 0 -1.60 0.75 -3 1.70 -2.45 1.60 -6.90 3.80 -9.15 4.50 -0.55 0.20 -1.35 0.65 -1.65 1.05 -0.35 0.40 -1.35 0.75 -2.25 0.75 -0.95 0 -1.75 0.30 -1.90 0.70 -0.15 0.40 -1.50 0.80 -3.45 1 -1.70 0.20 -3.30 0.60 -3.45 0.90 -0.20 0.30 -2.10 0.70 -4.25 0.95 -4.65 0.50 -6.60 0.90 -7 1.50 -0.15 0.25 -4.15 0.45 -8.85 0.45 -7.80 -0.05 -8.70 -0.10 -9.80 -1 z  m 30.45 -4.30 c 0 -0.10 -0.55 -0.20 -1.25 -0.20 -0.70 0 -1.25 0.20 -1.25 0.45 0 0.20 0.55 0.30 1.25 0.15 0.70 -0.10 1.25 -0.30 1.25 -0.40 z  m -48.60 -2.05 c -0.50 -0.10 -1.30 -0.10 -1.75 0 -0.50 0.15 -0.10 0.25 0.85 0.25 0.95 0 1.35 -0.10 0.90 -0.25 z "/>
    <path d="M 749.50 476.65 c -0.40 -0.15 -0.90 -0.50 -1.05 -0.80 -0.20 -0.25 -2 -0.60 -4 -0.70 -2.05 -0.15 -4.15 -0.55 -4.70 -0.90 -0.55 -0.30 -2.30 -0.75 -3.85 -0.90 -1.60 -0.15 -3.25 -0.65 -3.70 -1.05 -0.45 -0.45 -1.60 -0.80 -2.70 -0.80 -1.20 0 -2 -0.25 -2.20 -0.75 -0.15 -0.40 -0.65 -0.75 -1.15 -0.75 -0.50 0 -1.90 -0.55 -3.10 -1.25 -1.15 -0.70 -2.45 -1.25 -2.85 -1.25 -0.35 0 -0.85 -0.30 -1.05 -0.60 -0.45 -0.70 -1.80 -1.55 -4.75 -3 -1.05 -0.50 -1.90 -1.15 -1.90 -1.40 0 -0.30 -0.30 -0.50 -0.65 -0.50 -0.30 0 -1.55 -0.90 -2.75 -2 -1.15 -1.10 -2.30 -2 -2.50 -2 -0.85 0 -11.05 -10.60 -12.60 -13.05 -0.90 -1.50 -2.15 -3.20 -2.75 -3.85 -0.65 -0.60 -1.30 -1.70 -1.45 -2.40 -0.20 -0.65 -0.70 -1.65 -1.20 -2.20 -1.80 -2 -2.15 -2.55 -2.45 -4.10 -0.15 -0.90 -0.75 -1.95 -1.25 -2.30 -0.55 -0.40 -0.90 -1.30 -0.90 -2.40 0 -1.10 -0.25 -1.70 -0.70 -1.70 -0.85 0 -1.30 -1.10 -1.30 -3.05 0 -0.90 -0.25 -1.45 -0.70 -1.45 -0.80 0 -1.30 -1.05 -1.30 -2.80 0 -0.65 -0.45 -1.65 -1 -2.20 -0.65 -0.65 -1 -1.65 -1 -2.90 0 -1.10 -0.35 -2.65 -0.80 -3.55 -0.40 -0.85 -0.95 -2.85 -1.20 -4.45 -0.25 -1.55 -0.80 -3.85 -1.20 -5.05 -0.45 -1.25 -0.80 -3.75 -0.80 -5.90 0 -2.05 -0.40 -5.30 -0.85 -7.30 -1.15 -4.75 -1.30 -19.25 -0.20 -20.55 0.50 -0.60 0.75 -2.95 0.95 -8.45 0.15 -6 0.40 -7.80 1 -8.50 0.50 -0.55 0.95 -2.40 1.15 -4.65 0.20 -2.05 0.75 -4.30 1.15 -4.95 0.45 -0.65 0.80 -2.20 0.80 -3.45 0 -2.70 0.40 -3.80 1.30 -3.80 0.55 0 0.70 -0.80 0.70 -3.30 0 -2.85 0.15 -3.35 1 -3.55 0.65 -0.15 1 -0.70 1 -1.40 0 -2.20 0.65 -4.25 1.30 -4.25 0.50 0 0.70 -0.65 0.70 -2.05 0 -1.60 0.20 -2.10 1 -2.30 0.80 -0.20 1 -0.70 1 -2.45 0 -1.55 0.20 -2.20 0.70 -2.20 0.70 0 1.30 -1.05 1.30 -2.30 0 -0.40 0.45 -1.15 1 -1.70 0.55 -0.55 1 -1.65 1 -2.50 0 -0.80 0.25 -1.50 0.50 -1.50 0.30 0 0.90 -0.80 1.35 -1.75 0.45 -0.95 1 -1.75 1.25 -1.75 0.20 0 0.40 -0.55 0.40 -1.25 0 -0.70 0.45 -1.50 1 -1.85 0.60 -0.40 1 -1.20 1 -2.05 0 -1 0.30 -1.50 1 -1.70 0.55 -0.15 1 -0.55 1 -0.90 0 -0.90 2.50 -5.25 3.05 -5.25 0.25 0 0.45 -0.45 0.45 -0.95 0 -0.55 0.35 -1.30 0.75 -1.75 0.40 -0.40 0.75 -0.95 0.75 -1.25 0 -0.25 0.55 -0.90 1.25 -1.45 0.70 -0.55 1.25 -1.25 1.25 -1.55 0 -0.60 1.05 -1.90 5 -6.20 1.50 -1.60 3.20 -3.65 3.75 -4.50 2.05 -3.20 11.70 -12.90 15.50 -15.60 1.20 -0.90 2.95 -2.35 3.85 -3.20 0.90 -0.90 2.80 -2.25 4.15 -3.05 1.40 -0.80 3.20 -2.15 4 -2.95 0.85 -0.85 1.90 -1.55 2.35 -1.55 0.50 0 1.10 -0.45 1.40 -1 0.30 -0.55 0.85 -1 1.20 -1 0.35 0 1.05 -0.45 1.55 -1 0.50 -0.55 1.40 -1 2.05 -1 0.70 0 1.25 -0.40 1.45 -1 0.25 -0.75 0.75 -1 2 -1 1.20 0 1.90 -0.30 2.25 -1 0.30 -0.55 1.05 -1 1.65 -1 0.60 0 1.50 -0.45 2 -1 0.50 -0.60 1.45 -1 2.35 -1 0.95 0 1.50 -0.25 1.50 -0.70 0 -0.50 0.80 -0.85 2.20 -1.05 1.25 -0.20 2.35 -0.65 2.50 -1 0.10 -0.35 1.30 -0.80 2.65 -1 1.30 -0.20 2.75 -0.65 3.15 -1 0.40 -0.35 1.85 -0.75 3.15 -0.95 1.35 -0.15 2.75 -0.65 3.15 -1.05 0.50 -0.45 1.70 -0.75 3.25 -0.75 1.45 0 3.30 -0.40 4.35 -0.95 1.70 -0.85 3.25 -0.90 16.85 -0.95 13.55 0 15.30 0.05 17.90 0.95 1.55 0.50 3.70 0.95 4.75 0.95 1 0 2.25 0.35 2.80 0.75 0.50 0.40 1.90 0.85 3.10 1.05 1.25 0.15 2.30 0.50 2.45 0.70 0.15 0.25 1.40 0.80 2.75 1.25 1.40 0.45 2.50 1 2.50 1.25 0 0.20 0.70 0.50 1.50 0.65 0.90 0.20 1.50 0.65 1.50 1.10 0 0.50 0.50 0.75 1.50 0.75 0.95 0 1.65 0.35 2 1 0.30 0.60 1.05 1 1.80 1 0.65 0 1.35 0.35 1.55 0.80 0.15 0.40 0.80 1 1.45 1.25 0.65 0.20 1.20 0.75 1.20 1.20 0 0.45 0.45 0.75 1.15 0.75 1 0 2.40 1.30 16.75 15.75 0.60 0.60 1.10 1.45 1.10 1.80 0 0.40 0.45 1 1 1.35 0.55 0.35 1 0.90 1 1.30 0 0.35 0.45 1.05 1 1.55 0.55 0.50 1 1.30 1 1.75 0 0.45 0.45 1.25 1 1.75 0.55 0.50 1 1.15 1 1.50 0 0.35 0.45 1 1 1.50 0.55 0.50 1 1.25 1 1.65 0 0.45 0.90 2.65 2 4.90 1.10 2.30 2 4.45 2 4.80 0 0.35 0.35 1.10 0.75 1.60 0.40 0.55 0.75 1.80 0.75 2.85 0 1.10 0.25 1.95 0.70 2.10 0.40 0.15 0.85 1.40 1.05 2.85 0.20 1.45 0.65 3.20 1.05 3.90 0.40 0.75 0.70 2.80 0.70 4.75 0 2.70 0.20 3.55 1 4.35 0.95 0.95 1 1.65 1 22.20 0 11.65 -0.15 21.90 -0.30 22.75 -0.20 0.85 -0.60 1.55 -0.95 1.55 -0.50 0 -0.70 1.30 -0.85 4.75 -0.10 3.25 -0.35 4.90 -0.80 5.20 -0.35 0.20 -0.80 1.70 -0.95 3.35 -0.15 1.60 -0.60 3.45 -0.95 4.05 -0.40 0.60 -0.70 2.15 -0.70 3.40 0 1.65 -0.25 2.50 -1 3.10 -0.60 0.55 -1 1.50 -1 2.45 0 2.10 -0.45 3.20 -1.30 3.20 -0.50 0 -0.70 0.60 -0.70 1.90 0 1.05 -0.35 2.35 -0.75 2.90 -0.40 0.50 -0.75 1.45 -0.75 2.05 0 0.60 -0.35 1.45 -0.80 1.90 -0.45 0.40 -0.90 1.65 -1.05 2.70 -0.20 1.35 -0.55 2.05 -1.20 2.20 -0.70 0.20 -0.95 0.70 -0.95 1.85 0 1.15 -0.25 1.65 -1 1.85 -0.75 0.20 -1 0.70 -1 2 0 1.30 -0.25 1.80 -1 2 -0.65 0.15 -1 0.70 -1 1.45 0 0.65 -0.45 1.60 -1 2.05 -0.55 0.50 -1 1.35 -1 1.95 0 0.55 -0.45 1.45 -1 1.95 -0.55 0.50 -1 1.20 -1 1.55 0 0.35 -0.30 0.85 -0.60 1.05 -0.35 0.20 -1.20 1.50 -1.90 2.80 -0.70 1.35 -1.65 2.85 -2.10 3.35 -0.50 0.55 -0.90 1.20 -0.90 1.50 0 0.30 -0.80 1.20 -1.75 2.05 -0.95 0.85 -1.85 2 -2.05 2.60 -0.35 1.20 -1.65 2.85 -4.90 6.35 -1.10 1.20 -2.70 3.20 -3.45 4.45 -0.80 1.25 -3.75 4.50 -6.60 7.25 -5.60 5.45 -5.60 5.45 -8.25 7.30 -0.95 0.65 -2.95 2.35 -4.40 3.75 -1.45 1.35 -3.50 2.90 -4.50 3.45 -1 0.50 -1.95 1.10 -2.10 1.25 -0.60 0.80 -4.75 3.55 -5.30 3.55 -0.35 0 -0.85 0.30 -1.05 0.70 -0.40 0.65 -2.05 1.70 -7.40 4.50 -1.30 0.70 -2.65 1.50 -2.95 1.75 -0.30 0.25 -1.25 0.60 -2.15 0.75 -0.85 0.20 -1.70 0.65 -1.80 1.05 -0.15 0.35 -1.20 0.80 -2.30 1 -1.10 0.20 -2.25 0.65 -2.60 1.05 -0.30 0.40 -1.05 0.70 -1.65 0.70 -0.55 0.05 -1.95 0.45 -3.05 1 -1.10 0.55 -2.75 0.95 -3.60 1 -1.05 0 -1.65 0.25 -1.65 0.70 0 0.80 -2.15 1.30 -5.50 1.30 -1.55 0 -2.50 0.25 -2.65 0.70 -0.20 0.45 -1.55 0.75 -4.60 0.90 -3 0.15 -4.45 0.45 -4.75 0.95 -0.40 0.55 -2.50 0.70 -10.85 0.80 -5.70 0.05 -10.75 -0.05 -11.15 -0.20 z  m 1.40 -2.15 c -0.35 -0.55 -0.90 -1 -1.25 -1 -0.45 0 -0.35 0.30 0.25 0.95 1.15 1.30 1.75 1.30 1 0.05 z  m -45.40 -20.15 c 0 -0.10 -0.75 -0.80 -1.60 -1.65 l -1.65 -1.45 1.45 1.65 c 1.40 1.50 1.80 1.85 1.80 1.45 z  m -25.65 -117.70 c -0.15 -0.50 -0.25 -0.10 -0.25 0.85 0 0.95 0.10 1.35 0.25 0.90 0.10 -0.50 0.10 -1.30 0 -1.75 z  m 44.90 -76.15 c 1.35 -1.35 2.35 -2.50 2.20 -2.50 -0.15 0 -1.35 1.15 -2.70 2.50 -1.35 1.40 -2.35 2.50 -2.20 2.50 0.15 0 1.35 -1.10 2.70 -2.50 z  m 46.30 -29.90 c -0.65 -0.10 -1.35 0 -1.60 0.25 -0.30 0.30 0.15 0.35 1.15 0.20 1.40 -0.20 1.45 -0.30 0.45 -0.45 z "/>
    <path d="M 562.20 298.75 c -0.25 -0.60 -1.25 -0.75 -4.40 -0.75 -4.70 0 -6.30 -0.35 -6.30 -1.30 0 -0.50 -0.70 -0.70 -2.45 -0.70 -2.95 0 -4.05 -0.35 -4.05 -1.30 0 -0.50 -0.60 -0.70 -1.95 -0.70 -2.45 0 -3.55 -0.40 -3.55 -1.30 0 -0.45 -0.55 -0.70 -1.65 -0.70 -1 0 -1.95 -0.40 -2.50 -1 -0.45 -0.55 -1.40 -1 -2.05 -1 -0.70 0 -1.40 -0.25 -1.60 -0.55 -0.15 -0.30 -1.05 -0.85 -1.90 -1.25 -3 -1.40 -6.50 -3.60 -7.35 -4.65 -0.50 -0.60 -1.35 -1.05 -2 -1.05 -1.40 0 -17.95 -16.60 -19.45 -19.50 -0.55 -1.05 -1.65 -2.55 -2.50 -3.40 -0.80 -0.85 -1.50 -1.95 -1.50 -2.45 0 -0.50 -0.45 -1.20 -1 -1.55 -0.55 -0.35 -1 -0.85 -1 -1.10 0 -0.30 -0.45 -0.95 -1 -1.50 -0.55 -0.55 -1 -1.45 -1 -2 0 -0.50 -0.45 -1.20 -1 -1.50 -0.55 -0.30 -1 -1.05 -1 -1.70 0 -0.65 -0.45 -1.55 -1 -2.05 -0.55 -0.50 -1 -1.30 -1 -1.75 0 -0.50 -0.35 -1.15 -0.75 -1.50 -0.40 -0.35 -0.75 -1.20 -0.75 -1.95 0 -0.75 -0.45 -1.70 -1 -2.15 -0.55 -0.50 -1.15 -1.50 -1.30 -2.25 -0.20 -0.75 -0.65 -1.70 -1.05 -2.05 -0.35 -0.35 -0.65 -1.45 -0.65 -2.40 0 -1 -0.30 -1.85 -0.70 -2 -0.40 -0.15 -0.85 -1.25 -1 -2.45 -0.20 -1.20 -0.70 -2.45 -1.05 -2.75 -0.50 -0.40 -0.75 -1.55 -0.75 -3.30 0 -2 -0.20 -2.70 -0.70 -2.70 -1 0 -1.30 -1.15 -1.30 -5.30 0 -2.80 -0.15 -3.70 -0.70 -3.70 -0.80 0 -1.30 -2.55 -1.30 -6.85 0 -2.35 -0.20 -3.15 -0.70 -3.15 -1 0 -1.30 -2.30 -1.30 -10.40 0 -5.90 -0.15 -7.35 -0.75 -7.80 -1.65 -1.20 -1.60 -21.80 0.05 -21.80 0.55 0 0.70 -1 0.70 -4.85 0 -7.85 0.55 -13.15 1.30 -13.15 0.55 0 0.70 -1 0.70 -4.10 0 -4.80 0.35 -6.40 1.30 -6.40 0.55 0 0.70 -0.95 0.70 -4.20 0 -3.75 0.10 -4.20 1 -4.45 0.85 -0.20 1 -0.70 1 -3.30 0 -2.15 0.20 -3.10 0.75 -3.40 0.45 -0.30 0.85 -1.60 1.05 -3.60 0.20 -1.70 0.65 -3.45 1.05 -3.80 0.35 -0.35 0.65 -1.10 0.65 -1.65 0 -1.40 1 -4.10 1.55 -4.10 0.25 0 0.45 -0.65 0.45 -1.40 0 -0.75 0.45 -2.25 1 -3.35 0.55 -1.10 1 -2.35 1 -2.80 0 -0.45 0.35 -1.10 0.75 -1.45 0.40 -0.35 0.75 -1.25 0.75 -2.05 0 -0.80 0.45 -1.90 1 -2.45 0.55 -0.55 1 -1.55 1 -2.25 0 -0.70 0.45 -1.50 1 -1.85 0.55 -0.35 1 -1 1 -1.50 0 -1.30 0.55 -2.40 1.25 -2.40 0.35 0 0.75 -0.90 0.95 -2 0.20 -1.30 0.55 -2 1.05 -2 0.40 0 0.75 -0.45 0.75 -0.95 0 -1.50 0.55 -2.55 1.30 -2.55 0.40 0 0.70 -0.50 0.70 -1.25 0 -0.70 0.35 -1.40 0.75 -1.55 0.40 -0.20 0.75 -0.75 0.75 -1.30 0 -0.50 0.55 -1.45 1.25 -2.10 0.70 -0.65 1.25 -1.45 1.25 -1.75 0 -0.30 0.90 -1.70 2 -3.10 1.10 -1.40 2 -2.75 2 -3.05 0 -0.30 0.85 -1.55 1.95 -2.85 1.05 -1.25 2.25 -2.95 2.70 -3.80 0.40 -0.80 1.65 -2.40 2.70 -3.55 3.25 -3.50 5.35 -5.85 7.30 -8.30 2.60 -3.25 8.90 -9.30 10.90 -10.50 0.95 -0.55 2.85 -2.10 4.20 -3.40 2.35 -2.25 9.95 -8 10.60 -8 0.15 0 1.25 -0.80 2.45 -1.75 1.15 -0.95 2.60 -1.75 3.15 -1.75 0.55 0 1.40 -0.55 1.85 -1.25 0.55 -0.85 1.25 -1.25 2.20 -1.25 0.80 0 1.50 -0.35 1.70 -0.75 0.15 -0.45 0.90 -0.75 1.80 -0.75 0.85 0 1.95 -0.45 2.50 -1 0.55 -0.55 1.55 -1 2.25 -1 0.75 0 1.25 -0.30 1.25 -0.75 0 -0.50 0.80 -0.80 2.50 -1.05 1.60 -0.20 2.50 -0.55 2.50 -1 0 -0.50 0.80 -0.70 3.15 -0.70 2.55 0 3.20 -0.15 3.75 -1 0.50 -0.80 1.15 -1 3.60 -1 2.65 0 3 -0.10 3 -1 0 -1 0.35 -1 17 -1 16.45 0 17 0.05 17.50 1 0.40 0.75 1.05 1 2.65 1 2.80 0 4.35 0.45 4.35 1.30 0 0.50 0.75 0.70 2.90 0.70 2.30 0 3 0.20 3.50 1 0.40 0.70 1.15 1 2.35 1 1.10 0 1.90 0.30 2.05 0.75 0.20 0.40 0.95 0.75 1.75 0.75 0.90 0 1.60 0.35 1.95 1 0.30 0.55 1.05 1 1.75 1 0.65 0 1.50 0.35 1.90 0.75 0.40 0.35 1.30 0.85 2.05 1.05 0.70 0.15 1.50 0.60 1.70 0.95 0.20 0.30 1.35 1.20 2.60 1.90 1.25 0.70 3.25 2.35 4.50 3.55 1.25 1.25 2.55 2.55 2.90 2.90 0.35 0.35 1.05 1.05 1.50 1.55 0.45 0.45 1.15 0.85 1.55 0.85 0.80 0 8.05 7.35 8.05 8.15 0 0.30 0.65 1.10 1.40 1.85 0.80 0.75 2.60 3.05 4.05 5.15 1.45 2.10 2.95 4.05 3.35 4.40 0.40 0.30 0.70 1.10 0.70 1.75 0 0.65 0.30 1.35 0.70 1.55 1.10 0.60 3.30 4.05 3.30 5.15 0 0.55 0.45 1.45 1 2 0.55 0.55 1 1.55 1 2.25 0 0.70 0.40 1.45 1 1.75 0.70 0.35 1 1.05 1 2.20 0 1.25 0.25 1.75 1 1.95 0.80 0.20 1 0.70 1 2.20 0 1.35 0.30 2.10 1 2.55 0.70 0.40 1 1.15 1 2.35 0 1.20 0.30 1.85 1 2.25 0.80 0.45 1 1.05 1 3.20 0 1.90 0.20 2.80 0.70 2.95 0.45 0.20 0.85 1.30 1.05 2.70 0.15 1.30 0.60 3.05 1 3.80 0.85 1.60 1 3.65 0.30 4.10 -0.25 0.15 -0.60 -0.15 -0.70 -0.60 -0.15 -0.50 -0.25 0 -0.25 1.10 0 1.10 0.10 1.60 0.25 1.10 0.40 -1.45 1.65 -1 1.65 0.60 0 0.95 0.40 1.75 1.05 2.20 0.95 0.70 1 1.05 0.70 4.70 -0.30 3.40 -0.20 4.25 0.65 5.95 0.80 1.60 1.05 3.45 1.35 10.70 0.65 15.65 0.05 37.55 -1.20 40.65 -0.30 0.80 -0.55 3.20 -0.55 5.40 0 3 -0.25 4.40 -1 5.80 -0.60 1.10 -1 2.85 -1 4.20 0 3.30 -0.50 5.45 -1.30 5.45 -0.50 0 -0.70 0.70 -0.70 2.40 0 1.40 -0.40 3.10 -1 4.25 -0.55 1 -1 2.80 -1 4 0 1.55 -0.25 2.25 -1 2.75 -0.75 0.45 -1 1.15 -1 2.60 0 1.40 -0.30 2.25 -1 2.85 -0.65 0.60 -1 1.50 -1 2.70 0 2.35 -0.40 3.45 -1.30 3.45 -0.50 0 -0.70 0.65 -0.70 2.30 0 1.85 -0.20 2.35 -1 2.55 -0.80 0.20 -1 0.70 -1 2.25 0 1.55 -0.20 2.05 -1 2.25 -0.80 0.20 -1 0.70 -1 2.20 0 1.60 -0.15 1.95 -1 1.95 -0.80 0 -1 0.35 -1 1.75 0 1.20 -0.30 1.85 -1 2.25 -0.65 0.35 -1 1.05 -1 2.05 0 1.10 -0.25 1.60 -1 1.80 -0.75 0.20 -1 0.70 -1 1.95 0 1.10 -0.30 1.85 -0.75 2 -0.45 0.20 -0.75 0.95 -0.75 1.75 0 0.80 -0.25 1.45 -0.50 1.45 -0.30 0 -0.75 0.50 -1 1.15 -0.80 1.75 -2.50 4.55 -3.15 5.10 -0.75 0.65 -2.85 3.60 -2.85 4.05 0 0.15 -0.80 1.10 -1.75 2.05 -1 1 -2.10 2.50 -2.45 3.35 -0.40 0.85 -1.95 2.85 -3.50 4.50 -1.55 1.60 -2.80 3.15 -2.80 3.45 0 0.65 -2.30 3.25 -8.50 9.60 -6.10 6.20 -6.65 6.70 -10.60 9.70 -1.55 1.15 -3.60 2.85 -4.55 3.75 -0.95 0.90 -2.50 2 -3.45 2.45 -0.90 0.45 -2.25 1.40 -3 2.10 -0.75 0.70 -1.50 1.25 -1.65 1.25 -0.15 0 -1.45 0.80 -2.90 1.75 -1.40 0.95 -2.85 1.75 -3.15 1.75 -0.30 0 -1.10 0.45 -1.80 0.95 -0.65 0.55 -1.80 1.15 -2.55 1.30 -0.70 0.20 -1.55 0.65 -1.90 1.05 -0.30 0.40 -1.20 0.70 -2 0.70 -0.90 0 -1.60 0.35 -1.95 1 -0.35 0.65 -1.05 1 -2 1 -0.80 0 -1.80 0.35 -2.25 0.85 -0.45 0.45 -1.95 0.90 -3.40 1.05 -1.65 0.15 -2.95 0.55 -3.50 1.15 -0.65 0.70 -1.60 0.95 -3.85 0.95 -2.20 0 -3 0.20 -3 0.70 0 0.70 -3.35 1.30 -7.55 1.30 -1.60 0 -2.45 0.25 -2.65 0.75 -0.20 0.65 -1.75 0.75 -9.55 0.75 -7.80 0 -9.35 -0.10 -9.55 -0.75 z  m 11.70 -2.10 c -0.80 -0.10 -2 -0.10 -2.75 0 -0.80 0.10 -0.15 0.20 1.35 0.20 1.50 0 2.15 -0.10 1.40 -0.20 z  m -99 -119.45 l -0.15 -1.95 -0.25 2.35 c -0.15 1.30 -0.05 2.15 0.15 1.95 0.25 -0.25 0.35 -1.30 0.25 -2.35 z  m -1.05 -9.55 c -0.15 -0.50 -0.25 -0.10 -0.25 0.85 0 0.95 0.10 1.35 0.25 0.90 0.10 -0.50 0.10 -1.30 0 -1.75 z  m 1.15 -4.50 c 0 -1.80 -0.20 -2.60 -0.45 -2.15 -0.40 0.70 -0.15 5 0.25 5 0.10 0 0.20 -1.30 0.20 -2.85 z  m 224.70 -35 c -0.25 -6.55 -0.70 -5.60 -0.65 1.40 0.05 4.15 0.20 5.65 0.45 4.55 0.20 -0.90 0.30 -3.60 0.20 -5.95 z "/>
    <path d="M 293.40 293.65 c -0.80 -0.10 -1.40 -0.55 -1.40 -0.95 0 -0.55 -0.75 -0.70 -3 -0.70 -2.35 0 -3.20 -0.20 -4 -1 -0.70 -0.70 -1.65 -1 -3.25 -1 -1.50 0 -2.35 -0.25 -2.65 -0.80 -0.25 -0.40 -1.35 -0.90 -2.50 -1.05 -1.15 -0.15 -2.35 -0.60 -2.65 -0.95 -0.30 -0.40 -0.95 -0.70 -1.40 -0.70 -0.45 0 -1.45 -0.45 -2.30 -1 -0.80 -0.55 -1.85 -1 -2.30 -1 -0.45 0 -1.35 -0.40 -2 -0.90 -0.65 -0.55 -1.80 -1.10 -2.55 -1.30 -0.80 -0.15 -1.40 -0.55 -1.40 -0.80 0 -0.30 -0.30 -0.50 -0.65 -0.50 -0.40 0 -1.10 -0.45 -1.60 -1 -0.50 -0.55 -1.25 -1 -1.65 -1 -0.40 0 -1.40 -0.75 -2.30 -1.70 -0.85 -0.95 -2.15 -1.85 -2.85 -2.05 -0.75 -0.20 -2.65 -1.60 -4.25 -3.15 -1.65 -1.60 -3.60 -3.25 -4.35 -3.75 -2.45 -1.60 -8.30 -7 -10.85 -10.10 -1.85 -2.25 -6.70 -7.95 -7 -8.25 -0.45 -0.45 -3.25 -4.20 -3.75 -5.05 -1.20 -2 -9.55 -14.25 -10.10 -14.85 -0.35 -0.35 -0.65 -1.20 -0.65 -1.85 0 -0.60 -0.35 -1.25 -0.70 -1.40 -0.40 -0.15 -1 -1.20 -1.30 -2.25 -0.25 -1.10 -0.85 -2.15 -1.25 -2.30 -0.40 -0.15 -0.75 -0.85 -0.75 -1.55 0 -0.70 -0.45 -1.70 -1 -2.25 -0.55 -0.55 -1 -1.55 -1 -2.25 0 -0.75 -0.30 -1.25 -0.70 -1.25 -0.45 0 -0.85 -0.75 -1.05 -1.95 -0.20 -1.10 -0.60 -2.10 -0.95 -2.20 -0.30 -0.15 -0.85 -1.35 -1.25 -2.75 -0.35 -1.40 -0.95 -2.80 -1.35 -3.15 -0.40 -0.30 -0.70 -1.20 -0.70 -1.95 0 -0.80 -0.25 -1.50 -0.55 -1.60 -0.25 -0.10 -0.70 -1.45 -0.90 -3.05 -0.20 -1.55 -0.75 -3.25 -1.20 -3.75 -0.50 -0.55 -0.85 -1.75 -0.85 -2.95 0 -1.35 -0.30 -2.30 -1 -2.90 -0.75 -0.65 -1 -1.55 -1 -3.35 0 -1.75 -0.30 -2.90 -1 -3.75 -0.75 -0.95 -1 -2.05 -1 -4.15 0 -1.65 -0.35 -3.55 -0.85 -4.55 -0.45 -0.95 -0.90 -3.35 -1.05 -5.70 -0.15 -2.65 -0.45 -4.15 -0.90 -4.40 -0.60 -0.35 -0.70 -5.10 -0.70 -27.80 0 -23.60 0.10 -27.75 0.80 -29.60 0.40 -1.20 0.90 -3.75 1.05 -5.60 0.15 -1.90 0.55 -3.70 0.90 -4 0.30 -0.35 0.75 -2.20 0.95 -4.10 0.20 -1.90 0.65 -3.80 1 -4.25 0.35 -0.40 0.80 -1.85 1 -3.25 0.15 -1.40 0.65 -2.65 1.05 -2.90 0.45 -0.25 0.75 -1.15 0.75 -2.25 0 -1 0.45 -2.50 1 -3.35 0.55 -0.80 1 -2.20 1 -3.05 0 -0.85 0.35 -1.85 0.75 -2.20 0.40 -0.35 0.75 -1.05 0.75 -1.65 0 -0.55 0.40 -1.70 0.95 -2.55 0.50 -0.85 1.10 -2.10 1.30 -2.70 0.20 -0.65 0.80 -1.65 1.30 -2.15 0.50 -0.50 0.95 -1.30 0.95 -1.75 0 -0.45 0.45 -1.35 1 -2.05 0.55 -0.70 1 -1.60 1 -1.95 0 -0.40 0.35 -0.70 0.75 -0.70 0.50 0 0.75 -0.50 0.75 -1.40 0 -1.40 0.75 -2.65 2.90 -4.95 0.60 -0.65 1.10 -1.45 1.10 -1.70 0 -0.75 1.80 -3.25 4.10 -5.80 1.05 -1.20 1.90 -2.40 1.90 -2.75 0 -1 11.40 -12.45 15 -15.05 1.80 -1.30 3.85 -2.90 4.60 -3.60 0.75 -0.65 2.30 -1.70 3.40 -2.25 1.15 -0.60 2.15 -1.35 2.35 -1.75 0.15 -0.45 0.90 -0.75 1.70 -0.75 0.95 0 1.45 -0.25 1.45 -0.75 0 -0.40 0.45 -0.75 0.95 -0.75 0.55 0 1.05 -0.25 1.15 -0.55 0.10 -0.30 1.40 -0.85 2.90 -1.25 1.50 -0.40 2.90 -1.05 3.15 -1.45 0.20 -0.40 1.05 -0.75 1.80 -0.75 0.80 0 1.70 -0.35 2.05 -0.75 0.35 -0.45 1.45 -0.75 2.55 -0.75 2 0 3.05 0.75 1.60 1.15 -0.50 0.15 0.10 0.25 1.35 0.25 1.25 0 1.85 -0.10 1.40 -0.25 -1.10 -0.30 -1.15 -1.35 -0.10 -2.35 0.60 -0.60 1.85 -0.80 5.30 -0.80 3.75 0 4.65 -0.15 5.20 -0.85 0.55 -0.80 1.70 -0.90 11.20 -0.90 9.55 0 10.60 0.10 11.05 0.90 0.40 0.70 1.25 0.85 4.95 0.85 3.20 0 4.55 0.20 4.85 0.70 0.20 0.35 1.60 0.80 3.05 0.95 1.45 0.15 2.95 0.65 3.40 1.10 0.40 0.40 1.55 0.75 2.50 0.75 1.15 0 1.90 0.30 2.30 1 0.45 0.70 1.20 1 2.30 1 0.95 0 2.30 0.45 3.05 0.95 0.75 0.55 1.95 1.15 2.70 1.30 0.75 0.20 1.35 0.55 1.35 0.75 0 0.20 0.60 0.65 1.40 0.95 0.75 0.30 2.05 1 2.85 1.55 0.85 0.55 2.25 1.30 3.15 1.70 0.90 0.45 2 1.10 2.40 1.55 0.45 0.40 1.05 0.75 1.45 0.75 0.35 0 0.75 0.45 0.90 1 0.15 0.55 0.70 1 1.25 1 0.50 0 2.15 1.15 3.60 2.55 1.45 1.40 3.55 3.10 4.65 3.80 3.75 2.35 17.35 16.35 17.35 17.85 0 0.15 0.85 1.20 1.90 2.30 3 3.15 4.10 4.55 4.10 5.15 0 0.55 3.95 5.45 4.60 5.75 0.25 0.10 0.40 0.55 0.40 1 0 0.50 0.45 1.40 1 2.10 0.55 0.70 1 1.50 1 1.85 0 0.35 0.55 1.15 1.25 1.85 0.70 0.70 1.25 1.50 1.25 1.80 0 0.25 0.20 0.50 0.50 0.50 0.25 0 0.70 0.90 1 2 0.30 1.10 0.75 2 1 2 0.25 0 0.65 0.60 0.80 1.40 0.20 0.75 0.75 1.90 1.30 2.55 0.50 0.65 0.90 1.55 0.90 2 0 0.45 0.35 1.25 0.75 1.75 0.40 0.55 0.75 1.40 0.75 1.90 0 0.50 0.45 1.30 1 1.75 0.55 0.50 1 1.40 1 2.05 0 0.65 0.45 1.75 1 2.45 0.60 0.80 1 2.05 1 3.20 0 1.35 0.20 1.95 0.70 1.95 0.85 0 1.30 1.10 1.30 3.25 0 1.25 0.25 1.75 1 2 0.85 0.25 1 0.75 1 3 0 2.20 0.15 2.65 1 2.90 0.85 0.20 1 0.70 1 3.10 0 1.75 0.25 3.10 0.70 3.50 0.35 0.40 0.95 2.10 1.25 3.80 0.30 1.70 0.75 3.35 1.05 3.70 0.25 0.30 0.65 2.40 0.80 4.55 0.15 2.15 0.70 5 1.25 6.30 0.65 1.60 0.95 3.55 0.95 6.15 0 2.15 0.30 4.50 0.75 5.50 0.35 0.95 0.85 3.10 1.05 4.75 0.30 2.55 0.20 3 -0.45 3 -0.45 0 -0.90 -0.40 -1 -0.85 -0.15 -0.50 -0.25 1.90 -0.25 5.35 0 3.45 0.10 5.85 0.25 5.40 0.10 -0.50 0.50 -0.90 0.85 -0.90 0.50 0 0.70 1.65 0.70 7.25 0.05 5.90 -0.05 7.25 -0.65 7.25 -0.35 0 -0.80 -0.40 -0.90 -0.85 -0.15 -0.50 -0.25 0.10 -0.25 1.35 0 1.25 0.10 1.85 0.25 1.40 0.10 -0.50 0.60 -0.90 1 -0.90 0.70 0 0.75 0.70 0.50 5.65 -0.20 3.05 -0.65 6.85 -1.10 8.35 -0.40 1.50 -0.75 3.70 -0.75 4.85 0 1.20 -0.45 3.45 -1 5 -0.55 1.60 -1 4.10 -1 5.65 0 1.85 -0.30 3.25 -1 4.40 -0.55 0.90 -1 2.50 -1 3.60 0 1.35 -0.35 2.35 -1 3 -0.75 0.75 -1 1.65 -1 3.50 0 1.95 -0.20 2.60 -1 3 -0.75 0.40 -1 1.05 -1 2.50 0 1.45 -0.25 2.10 -1 2.50 -0.55 0.30 -1 1.05 -1 1.65 0 1.90 -0.60 3.35 -1.30 3.35 -0.50 0 -0.70 0.65 -0.70 1.95 0 1.15 -0.35 2.30 -0.80 2.80 -0.45 0.45 -1.80 2.75 -3.05 5.15 -1.20 2.40 -2.50 4.60 -2.90 4.90 -0.40 0.30 -0.75 0.90 -0.75 1.35 0 0.45 -0.30 1.10 -0.65 1.45 -0.35 0.35 -1.40 1.95 -2.35 3.50 -0.90 1.60 -2.20 3.40 -2.80 4.05 -0.60 0.65 -1.45 1.90 -1.90 2.75 -0.95 1.90 -13.55 14.55 -16.20 16.35 -1 0.70 -3.10 2.25 -4.60 3.50 -1.50 1.20 -3 2.20 -3.35 2.25 -0.30 0 -0.65 0.20 -0.75 0.40 -0.25 0.60 -3.70 2.60 -4.50 2.60 -0.40 0 -1.15 0.45 -1.65 1 -0.50 0.55 -1.55 1 -2.35 1 -0.75 0 -1.40 0.20 -1.40 0.50 0 0.25 -0.90 0.70 -1.95 1 -1.10 0.30 -2.05 0.75 -2.15 1.05 -0.10 0.35 -1.40 0.70 -2.90 0.85 -1.60 0.15 -3 0.55 -3.30 1 -0.35 0.45 -1.70 0.85 -3.50 1 -1.90 0.15 -3.15 0.55 -3.55 1.05 -0.50 0.70 -2.45 0.80 -16.25 0.85 -8.60 0.05 -16.25 0 -17 -0.15 z  m -101.15 -131.10 c -0.15 -0.60 -0.50 -1.05 -0.75 -1.05 -0.20 0 -0.15 0.55 0.15 1.20 0.70 1.45 1.10 1.35 0.60 -0.15 z  m 2.10 -67.90 c -0.15 -0.50 -0.25 -0.10 -0.25 0.85 0 0.95 0.10 1.35 0.25 0.90 0.10 -0.50 0.10 -1.30 0 -1.75 z "/>
  </g>
</svg>